<svg width="502.1" height="75.202" viewBox="0 0 502.1 75.202" xmlns="http://www.w3.org/2000/svg"><g id="svgGroup" stroke-linecap="round" fill-rule="evenodd" font-size="9pt" stroke="#ff00801e" stroke-width="0.9mm" fill="#ffffff" style="stroke:#ff00801e;stroke-width:0.9mm;fill:#ffffff"><path d="M 54.5 8.5 L 49.6 16.3 Q 46 14 42.05 12.5 A 22.062 22.062 0 0 0 37.618 11.352 Q 35.525 11.025 33.159 11.002 A 36.967 36.967 0 0 0 32.8 11 A 22.23 22.23 0 0 0 28.876 11.326 Q 26.684 11.719 24.92 12.588 A 11.88 11.88 0 0 0 23.3 13.55 A 9.247 9.247 0 0 0 21.115 15.668 A 7.544 7.544 0 0 0 19.7 20.2 Q 19.7 23.9 22.25 26.75 Q 24.335 29.08 29.326 31.978 A 80.594 80.594 0 0 0 31.7 33.3 A 70.741 70.741 0 0 1 35.877 35.689 Q 37.813 36.891 39.377 38.075 A 29.814 29.814 0 0 1 41.85 40.15 Q 45.4 43.5 46.75 47.2 A 22.251 22.251 0 0 1 47.955 52.533 A 27.57 27.57 0 0 1 48.1 55.4 Q 48.1 61.5 44.95 65.95 A 19.341 19.341 0 0 1 38.533 71.652 A 24.194 24.194 0 0 1 36.2 72.8 A 28.864 28.864 0 0 1 29.33 74.741 A 39.092 39.092 0 0 1 23.2 75.2 A 45.79 45.79 0 0 1 15.948 74.65 A 35.797 35.797 0 0 1 10.2 73.25 A 34.471 34.471 0 0 1 2.604 69.658 A 30.775 30.775 0 0 1 0 67.8 L 6.2 60.1 A 26.248 26.248 0 0 0 13.446 64.753 A 29.906 29.906 0 0 0 14.15 65.05 A 25.276 25.276 0 0 0 21.427 66.777 A 30.669 30.669 0 0 0 24.2 66.9 A 24.095 24.095 0 0 0 28.356 66.563 Q 30.648 66.161 32.495 65.28 A 12.473 12.473 0 0 0 34.55 64.05 A 9.008 9.008 0 0 0 38.336 57.529 A 11.544 11.544 0 0 0 38.4 56.3 A 11.803 11.803 0 0 0 37.916 52.879 A 10.552 10.552 0 0 0 37.25 51.2 A 10.398 10.398 0 0 0 36.127 49.454 Q 35.479 48.626 34.602 47.779 A 24.154 24.154 0 0 0 33.1 46.45 A 34.822 34.822 0 0 0 30.971 44.855 Q 28.35 43.031 24.5 40.9 Q 16.973 36.654 13.683 32.501 A 16.732 16.732 0 0 1 13.45 32.2 Q 10.2 27.9 10.2 21.2 A 17.835 17.835 0 0 1 10.961 15.899 A 15.16 15.16 0 0 1 13.15 11.5 A 18.255 18.255 0 0 1 18.605 6.536 A 23.359 23.359 0 0 1 21.4 5.1 Q 26.7 2.8 33.6 2.8 A 44.17 44.17 0 0 1 39.955 3.237 A 34.31 34.31 0 0 1 45 4.35 Q 50.1 5.9 54.5 8.5 Z" id="0" vector-effect="non-scaling-stroke"/><path d="M 75.5 22 L 66.4 74 L 57.4 74 L 66.5 22 L 75.5 22 Z M 73.1 13.1 Q 70.3 13.1 68.85 11.45 Q 67.4 9.8 67.4 7.6 A 8.315 8.315 0 0 1 67.705 5.291 A 6.358 6.358 0 0 1 69.4 2.45 A 6.799 6.799 0 0 1 74.023 0.508 A 8.947 8.947 0 0 1 74.4 0.5 Q 77.2 0.5 78.65 2.15 Q 80.1 3.8 80.1 6 A 7.853 7.853 0 0 1 79.718 8.501 A 6.583 6.583 0 0 1 78.1 11.1 A 6.747 6.747 0 0 1 73.292 13.098 A 8.857 8.857 0 0 1 73.1 13.1 Z" id="1" vector-effect="non-scaling-stroke"/><path d="M 102.2 74 L 92.3 74 L 84.5 22.7 L 93.2 21.5 L 99.1 64 L 118 25.7 L 127.5 25.7 L 132.7 64 L 153.7 21.5 L 161.1 25.3 L 136.2 74 L 126.3 74 L 121.1 35.8 L 102.2 74 Z" id="2" vector-effect="non-scaling-stroke"/><path d="M 212.8 24.4 L 206.5 59.9 Q 206.4 60.4 206.35 61.05 A 17.363 17.363 0 0 0 206.301 62.215 A 19.322 19.322 0 0 0 206.3 62.4 A 7.658 7.658 0 0 0 206.426 63.84 Q 206.748 65.522 207.9 66.35 A 5.761 5.761 0 0 0 209.816 67.23 Q 210.841 67.5 212.1 67.5 L 209 74.5 Q 205.253 74.5 202.734 73.224 A 8.601 8.601 0 0 1 200.75 71.85 A 8.157 8.157 0 0 1 198.624 68.495 Q 198.16 67.167 197.993 65.531 A 19.074 19.074 0 0 1 197.9 63.6 Q 195.1 68.4 190.85 71.8 Q 186.6 75.2 180.9 75.2 Q 176 75.2 171.7 72.55 A 19.481 19.481 0 0 1 165.675 66.652 A 23.727 23.727 0 0 1 164.7 65.05 A 20.856 20.856 0 0 1 162.446 58.638 A 28.321 28.321 0 0 1 162 53.5 Q 162 43.8 166.25 36.45 Q 170.5 29.1 178 24.95 A 33.311 33.311 0 0 1 190.858 21.013 A 41.372 41.372 0 0 1 195.1 20.8 A 49.31 49.31 0 0 1 199.985 21.03 Q 202.947 21.325 205.45 22 Q 208.763 22.893 211.217 23.787 A 39.405 39.405 0 0 1 212.8 24.4 Z M 200.2 45.2 L 202.9 29.7 Q 201 29.1 198.95 28.75 Q 197.356 28.478 195.249 28.417 A 43.507 43.507 0 0 0 194 28.4 A 25.973 25.973 0 0 0 187.927 29.081 A 20.571 20.571 0 0 0 182 31.5 Q 176.9 34.6 174.05 40.05 Q 171.2 45.5 171.2 52.4 A 21.859 21.859 0 0 0 171.487 56.044 Q 171.909 58.537 172.95 60.5 Q 174.7 63.8 177.5 65.5 A 11.759 11.759 0 0 0 180.85 66.909 A 10.409 10.409 0 0 0 183.3 67.2 A 11.397 11.397 0 0 0 190.318 64.78 A 14.46 14.46 0 0 0 190.8 64.4 Q 194.2 61.6 196.65 56.6 Q 199.1 51.6 200.2 45.2 Z" id="3" vector-effect="non-scaling-stroke"/><path d="M 222.7 74 L 229.3 36.6 Q 229.4 36.1 229.45 35.45 A 17.363 17.363 0 0 0 229.499 34.285 A 19.322 19.322 0 0 0 229.5 34.1 A 7.658 7.658 0 0 0 229.374 32.66 Q 229.052 30.978 227.9 30.15 A 5.761 5.761 0 0 0 225.984 29.27 Q 224.959 29 223.7 29 L 226.8 22 A 17.686 17.686 0 0 1 229.944 22.262 Q 233.013 22.817 234.95 24.55 Q 237.583 26.906 237.783 31.352 A 16.592 16.592 0 0 1 237.8 32.1 L 237.8 34.1 A 31.489 31.489 0 0 1 239.989 29.691 Q 241.34 27.461 242.941 25.837 A 15.524 15.524 0 0 1 245.25 23.9 Q 249.8 20.8 255.6 20.8 A 25.342 25.342 0 0 1 257.361 20.858 Q 258.193 20.916 258.915 21.032 A 13.077 13.077 0 0 1 259.55 21.15 A 18.344 18.344 0 0 1 260.71 21.434 Q 261.613 21.688 262.3 22 L 258.3 30.8 Q 257.1 30.3 255.8 30.1 A 16.005 16.005 0 0 0 254.586 29.963 Q 253.964 29.916 253.27 29.904 A 27.49 27.49 0 0 0 252.8 29.9 A 10.923 10.923 0 0 0 248.264 30.921 A 15.299 15.299 0 0 0 245.65 32.45 A 15.108 15.108 0 0 0 242.932 35.014 Q 240.964 37.351 239.25 40.9 A 39.337 39.337 0 0 0 237.415 45.476 Q 236.598 47.908 235.894 50.814 A 99.74 99.74 0 0 0 234.6 57.1 L 231.7 74 L 222.7 74 Z" id="4" vector-effect="non-scaling-stroke"/><path d="M 262.2 74 L 274.5 4 L 315.5 4 L 314.1 12.2 L 282.5 12.2 L 278.8 33.6 L 305 33.6 L 303.6 41.4 L 277.4 41.4 L 271.7 74 L 262.2 74 Z" id="5" vector-effect="non-scaling-stroke"/><path d="M 327.704 74.584 A 30.696 30.696 0 0 0 334 75.2 A 33.622 33.622 0 0 0 338.273 74.936 A 26.204 26.204 0 0 0 349.15 71.1 Q 355.6 67 359.1 59.95 A 32.483 32.483 0 0 0 361.233 54.445 A 36.653 36.653 0 0 0 362.6 44.3 Q 362.6 37.4 359.65 32.1 Q 356.7 26.8 351.3 23.8 A 23.014 23.014 0 0 0 344.796 21.416 A 30.696 30.696 0 0 0 338.5 20.8 A 33.406 33.406 0 0 0 334.04 21.089 A 25.853 25.853 0 0 0 323.4 24.9 Q 317 29 313.45 36 A 31.665 31.665 0 0 0 311.143 41.998 A 36.693 36.693 0 0 0 309.9 51.7 A 29.325 29.325 0 0 0 310.041 54.606 A 23.813 23.813 0 0 0 312.85 63.85 Q 315.8 69.2 321.2 72.2 A 23.014 23.014 0 0 0 327.704 74.584 Z M 334.3 67.2 A 20.372 20.372 0 0 0 339.378 66.594 A 15.937 15.937 0 0 0 344.55 64.25 A 19.086 19.086 0 0 0 350.805 56.917 A 22.65 22.65 0 0 0 351.1 56.3 A 25.217 25.217 0 0 0 353.238 48.309 A 31.049 31.049 0 0 0 353.4 45.1 Q 353.4 40.5 351.6 36.85 Q 349.8 33.2 346.4 31 A 13.5 13.5 0 0 0 341.335 29.06 A 18.161 18.161 0 0 0 338.2 28.8 A 19.814 19.814 0 0 0 332.86 29.492 A 16.233 16.233 0 0 0 328 31.75 A 19.058 19.058 0 0 0 321.472 39.544 A 22.557 22.557 0 0 0 321.4 39.7 A 25.217 25.217 0 0 0 319.262 47.691 A 31.049 31.049 0 0 0 319.1 50.9 Q 319.1 55.4 320.9 59.1 Q 322.7 62.8 326.1 65 A 13.5 13.5 0 0 0 331.165 66.94 A 18.161 18.161 0 0 0 334.3 67.2 Z" id="6" vector-effect="non-scaling-stroke"/><path d="M 390.7 0 L 380.9 56 A 49.016 49.016 0 0 0 380.73 57.201 Q 380.652 57.809 380.6 58.35 Q 380.5 59.4 380.5 60.2 A 9.051 9.051 0 0 0 380.753 62.405 A 6.16 6.16 0 0 0 382.55 65.5 A 6.947 6.947 0 0 0 385.908 67.194 A 10.099 10.099 0 0 0 388 67.4 Q 389.7 67.4 391.4 67 A 14.996 14.996 0 0 0 393.502 66.346 A 12.761 12.761 0 0 0 394.5 65.9 L 395.4 73.2 Q 393.6 74.1 391.2 74.65 Q 388.8 75.2 386 75.2 Q 380 75.2 375.75 71.75 Q 371.691 68.455 371.509 61.922 A 22.286 22.286 0 0 1 371.5 61.3 Q 371.5 58.7 371.9 56.2 L 381.7 0 L 390.7 0 Z" id="7" vector-effect="non-scaling-stroke"/><path d="M 420.9 22 L 411.8 74 L 402.8 74 L 411.9 22 L 420.9 22 Z M 418.5 13.1 Q 415.7 13.1 414.25 11.45 Q 412.8 9.8 412.8 7.6 A 8.315 8.315 0 0 1 413.105 5.291 A 6.358 6.358 0 0 1 414.8 2.45 A 6.799 6.799 0 0 1 419.423 0.508 A 8.947 8.947 0 0 1 419.8 0.5 Q 422.6 0.5 424.05 2.15 Q 425.5 3.8 425.5 6 A 7.853 7.853 0 0 1 425.118 8.501 A 6.583 6.583 0 0 1 423.5 11.1 A 6.747 6.747 0 0 1 418.692 13.098 A 8.857 8.857 0 0 1 418.5 13.1 Z" id="8" vector-effect="non-scaling-stroke"/><path d="M 446.204 74.584 A 30.696 30.696 0 0 0 452.5 75.2 A 33.622 33.622 0 0 0 456.773 74.936 A 26.204 26.204 0 0 0 467.65 71.1 Q 474.1 67 477.6 59.95 A 32.483 32.483 0 0 0 479.733 54.445 A 36.653 36.653 0 0 0 481.1 44.3 Q 481.1 37.4 478.15 32.1 Q 475.2 26.8 469.8 23.8 A 23.014 23.014 0 0 0 463.296 21.416 A 30.696 30.696 0 0 0 457 20.8 A 33.406 33.406 0 0 0 452.54 21.089 A 25.853 25.853 0 0 0 441.9 24.9 Q 435.5 29 431.95 36 A 31.665 31.665 0 0 0 429.643 41.998 A 36.693 36.693 0 0 0 428.4 51.7 A 29.325 29.325 0 0 0 428.541 54.606 A 23.813 23.813 0 0 0 431.35 63.85 Q 434.3 69.2 439.7 72.2 A 23.014 23.014 0 0 0 446.204 74.584 Z M 452.8 67.2 A 20.372 20.372 0 0 0 457.878 66.594 A 15.937 15.937 0 0 0 463.05 64.25 A 19.086 19.086 0 0 0 469.305 56.917 A 22.65 22.65 0 0 0 469.6 56.3 A 25.217 25.217 0 0 0 471.738 48.309 A 31.049 31.049 0 0 0 471.9 45.1 Q 471.9 40.5 470.1 36.85 Q 468.3 33.2 464.9 31 A 13.5 13.5 0 0 0 459.835 29.06 A 18.161 18.161 0 0 0 456.7 28.8 A 19.814 19.814 0 0 0 451.36 29.492 A 16.233 16.233 0 0 0 446.5 31.75 A 19.058 19.058 0 0 0 439.972 39.544 A 22.557 22.557 0 0 0 439.9 39.7 A 25.217 25.217 0 0 0 437.762 47.691 A 31.049 31.049 0 0 0 437.6 50.9 Q 437.6 55.4 439.4 59.1 Q 441.2 62.8 444.6 65 A 13.5 13.5 0 0 0 449.665 66.94 A 18.161 18.161 0 0 0 452.8 67.2 Z" id="9" vector-effect="non-scaling-stroke"/><path d="M 494.7 75.2 Q 491.9 75.2 490.2 73.45 A 6.358 6.358 0 0 1 489.053 71.863 A 5.222 5.222 0 0 1 488.5 69.5 A 9.514 9.514 0 0 1 488.772 67.157 A 6.424 6.424 0 0 1 490.8 63.8 A 8.376 8.376 0 0 1 493.143 62.333 A 7.258 7.258 0 0 1 495.9 61.8 A 7.959 7.959 0 0 1 497.804 62.015 A 5.399 5.399 0 0 1 500.45 63.5 Q 502.1 65.2 502.1 67.5 A 9.727 9.727 0 0 1 501.837 69.831 A 6.453 6.453 0 0 1 499.85 73.2 Q 497.6 75.2 494.7 75.2 Z" id="10" vector-effect="non-scaling-stroke"/></g></svg>